<svg width="80" height="80" viewBox="0 0 80 80" fill="none" xmlns="http://www.w3.org/2000/svg">
<path d="M30.7745 0C30.8747 0.177536 31.0981 0.198423 31.3319 0.267349C33.1628 0.79787 34.6409 1.94663 35.5741 3.62592L41.382 14.0755L80 14.0713V52.2187C79.8789 52.2981 79.8038 52.4359 79.7578 52.6427C78.8914 55.7193 76.2046 57.8414 72.9562 57.8414L56.8894 57.8476L48.6848 42.945C46.9248 39.7473 43.6054 37.8654 40.0585 37.8445C36.524 37.8236 33.1315 39.6512 31.3674 42.8469L23.0981 57.8414L7.5094 57.8748C3.77871 57.8831 0.874739 55.6921 0 51.9492V5.88377C0.720251 3.01394 2.54071 0.90648 5.32568 0.215132C5.46555 0.179625 5.5595 0.0626599 5.61378 0H30.7745Z" fill="url(#paint0_linear_88_329)"/>
<path d="M56.1232 79.9812L23.9395 80C22.2547 80 20.8831 78.4878 20.2985 77.4477C19.3737 75.8081 19.5282 74.0557 20.3612 72.5435L35.4342 45.1486C36.3841 43.4212 38.2171 42.5231 40.0585 42.5356C41.9749 42.5503 43.7056 43.58 44.6722 45.3386L59.6785 72.6437C60.4676 74.0807 60.5637 75.9376 59.6994 77.4163C59.1065 78.4293 57.8455 79.977 56.1232 79.9791V79.9812ZM42.3215 64.4708L42.3173 53.3487C42.3173 52.0495 41.1086 51.1013 39.9332 51.1368C38.7578 51.1723 37.6701 52.0955 37.6701 53.3487V64.5334C37.6722 65.841 38.8789 66.7829 40.0543 66.7474C41.2296 66.7119 42.3215 65.8055 42.3215 64.4708ZM39.6889 69.9243C38.2693 70.1311 37.4551 71.4386 37.6994 72.6667C37.9436 73.8948 39.0856 74.7199 40.3048 74.5486C41.5679 74.369 42.4843 73.1951 42.3069 71.919C42.1441 70.743 41.0313 69.73 39.6889 69.9264V69.9243Z" fill="url(#paint1_linear_88_329)"/>
<path d="M79.5867 9.37815L44.1566 9.38233L41.5491 4.69536H72.9457C75.9624 4.69536 78.5491 6.51041 79.5867 9.37815Z" fill="url(#paint2_linear_88_329)"/>
<defs>
<linearGradient id="paint0_linear_88_329" x1="0" y1="40" x2="80" y2="40" gradientUnits="userSpaceOnUse">
<stop stop-color="#6466FF"/>
<stop offset="0.639423" stop-color="#06B6D4"/>
</linearGradient>
<linearGradient id="paint1_linear_88_329" x1="0" y1="40" x2="80" y2="40" gradientUnits="userSpaceOnUse">
<stop stop-color="#6466FF"/>
<stop offset="0.639423" stop-color="#06B6D4"/>
</linearGradient>
<linearGradient id="paint2_linear_88_329" x1="0" y1="40" x2="80" y2="40" gradientUnits="userSpaceOnUse">
<stop stop-color="#6466FF"/>
<stop offset="0.639423" stop-color="#06B6D4"/>
</linearGradient>
</defs>
</svg>
